<?xml version="1.0" standalone="no"?>
<!DOCTYPE svg PUBLIC "-//W3C//DTD SVG 20010904//EN"
 "http://www.w3.org/TR/2001/REC-SVG-20010904/DTD/svg10.dtd">
<svg version="1.0" xmlns="http://www.w3.org/2000/svg"
 width="1972.000000pt" height="582.000000pt" viewBox="0 0 1972.000000 582.000000"
 preserveAspectRatio="xMidYMid meet">

<g transform="translate(0.000000,582.000000) scale(0.100000,-0.100000)"
fill="#000000" stroke="none">
<path d="M13455 5793 c-167 -20 -266 -58 -414 -157 -124 -83 -177 -107 -337
-150 -72 -20 -234 -73 -360 -119 -126 -46 -265 -97 -309 -112 -44 -16 -222
-99 -395 -186 -434 -217 -512 -246 -860 -318 -107 -23 -280 -64 -385 -91 -104
-28 -320 -84 -480 -124 -159 -41 -416 -116 -570 -166 -363 -119 -573 -180
-793 -229 -268 -61 -353 -67 -788 -54 -335 10 -553 7 -659 -12 -16 -2 -121 -9
-233 -15 -112 -5 -233 -15 -270 -22 -41 -7 -191 -12 -387 -12 l-320 -1 -120
-33 c-186 -52 -262 -85 -406 -181 -154 -101 -197 -135 -375 -285 -223 -189
-382 -282 -683 -401 -395 -156 -606 -216 -838 -235 -150 -12 -540 -12 -703 0
-116 9 -131 12 -205 49 -44 22 -90 43 -101 46 -33 9 -70 -10 -150 -75 -182
-146 -409 -236 -964 -384 -365 -98 -371 -98 -523 -81 -67 8 -170 18 -229 21
-90 6 -111 4 -132 -10 -14 -9 -66 -27 -115 -40 -98 -26 -104 -29 -180 -80 -29
-20 -59 -36 -65 -36 -7 0 -21 -9 -30 -19 -15 -17 -16 -25 -7 -54 21 -62 99
-110 246 -153 33 -9 71 -25 85 -35 32 -23 117 -46 200 -54 36 -4 100 -16 143
-27 94 -25 115 -21 297 57 148 64 543 201 685 238 197 52 371 76 837 117 332
29 529 24 798 -20 154 -25 181 -28 425 -45 324 -24 361 -30 513 -86 228 -84
363 -114 647 -143 311 -32 350 -31 575 4 385 59 754 139 965 208 50 17 242 89
428 161 396 154 527 194 527 162 0 -9 -119 -59 -195 -82 -22 -6 -85 -31 -140
-54 -162 -68 -521 -201 -650 -240 -266 -81 -492 -130 -875 -191 -200 -32 -352
-35 -595 -10 -314 31 -382 45 -735 151 -148 45 -319 74 -490 85 -193 12 -371
32 -527 61 -72 13 -144 19 -200 17 l-88 -3 80 -19 c44 -10 193 -45 330 -77
232 -54 345 -76 725 -143 80 -14 210 -43 290 -65 240 -66 401 -92 785 -126
198 -18 245 -16 490 20 88 13 247 36 354 50 195 26 288 44 455 91 164 45 693
212 1111 349 226 75 448 144 495 155 298 67 454 100 516 109 149 22 423 34
674 28 236 -6 284 -10 655 -62 704 -97 1032 -160 1510 -290 174 -47 254 -65
565 -127 l265 -53 275 0 c331 0 297 -9 658 170 359 177 562 291 562 315 0 5
-17 12 -37 16 -77 14 -132 83 -133 167 0 21 20 116 45 213 25 96 45 188 45
204 0 34 15 40 25 10 8 -27 -2 -91 -36 -235 -18 -74 -29 -147 -29 -190 0 -109
10 -116 206 -150 173 -30 349 -86 544 -173 74 -33 263 -113 420 -176 438 -178
882 -406 1037 -532 28 -23 64 -74 114 -161 40 -69 84 -140 99 -157 44 -50 59
-89 76 -193 28 -179 55 -297 84 -363 25 -58 28 -81 34 -215 13 -304 15 -322
50 -370 152 -209 204 -264 303 -322 39 -23 46 -24 59 -11 23 23 34 126 34 337
l0 194 -90 272 c-96 292 -134 454 -170 728 -12 87 -29 191 -40 231 -25 98 -79
204 -127 247 -59 54 -212 157 -383 259 -85 51 -176 110 -202 131 -26 22 -49
39 -52 39 -3 0 -25 13 -48 29 -24 15 -86 53 -138 84 -210 122 -432 296 -532
414 -148 176 -198 261 -198 340 0 71 94 211 249 373 111 115 154 177 203 295
21 50 43 100 48 113 14 33 30 27 30 -13 0 -45 -39 -151 -81 -221 -19 -31 -74
-101 -124 -155 -174 -194 -216 -245 -245 -303 -40 -79 -41 -147 -4 -202 58
-85 155 -202 220 -265 75 -71 271 -220 372 -282 35 -21 92 -57 127 -81 38 -26
84 -48 115 -55 32 -7 191 -11 423 -11 701 -1 918 -24 1174 -124 72 -28 107
-36 156 -36 75 0 107 -15 242 -111 120 -85 285 -251 372 -374 96 -136 122
-156 219 -170 28 -3 87 -22 130 -41 87 -38 109 -39 239 -20 75 12 93 18 112
41 13 14 23 34 23 44 0 22 -91 168 -166 268 -29 39 -84 96 -122 126 -38 30
-97 80 -133 111 -35 31 -127 99 -204 150 -77 52 -194 140 -260 196 -228 192
-262 217 -377 272 -202 98 -189 96 -863 139 -463 29 -499 32 -649 65 -87 20
-191 47 -230 61 -145 51 -367 191 -406 256 -36 59 -19 152 59 327 26 58 58
133 70 166 13 34 35 73 49 86 126 116 445 98 698 -38 139 -74 293 -132 546
-205 297 -86 366 -102 405 -94 l33 6 -62 82 c-34 45 -105 138 -159 207 -127
165 -270 383 -362 553 -93 172 -211 426 -203 435 4 3 37 -26 74 -65 105 -109
207 -150 400 -160 107 -6 136 -14 92 -28 -11 -3 -24 -14 -30 -24 -12 -23 66
-140 201 -300 129 -154 174 -180 455 -266 177 -54 234 -65 351 -65 68 0 111 6
156 21 115 38 331 165 343 201 3 11 -13 41 -46 84 -66 86 -97 147 -120 241
-10 41 -30 93 -45 114 -35 54 -187 202 -260 254 -122 86 -304 171 -515 240
-110 36 -124 38 -305 45 l-190 9 -344 86 c-305 76 -370 96 -570 174 -303 119
-369 142 -556 189 -297 76 -440 100 -670 112 -427 21 -1229 36 -1330 23z
m3129 -562 c138 -35 219 -71 332 -146 102 -69 173 -145 133 -145 -6 0 -47 27
-91 61 -242 182 -619 280 -848 221 -76 -20 -87 -41 -46 -90 44 -51 30 -73 -16
-24 -34 37 -58 74 -58 89 0 20 43 43 111 58 46 11 107 14 214 11 127 -3 168
-9 269 -35z m-288 -102 c48 -23 107 -83 131 -134 27 -58 5 -53 -51 11 -59 65
-128 108 -193 119 -62 10 -53 25 14 25 37 0 72 -7 99 -21z m1863 -701 c52 -71
41 -88 -57 -88 -38 0 -67 6 -87 19 -36 22 -70 76 -54 86 22 14 66 23 116 24
49 1 53 -1 82 -41z"/>
<path d="M16490 4713 c0 -10 134 -262 192 -360 84 -143 223 -347 312 -456 97
-121 119 -152 312 -447 261 -401 405 -595 464 -625 29 -15 39 -14 132 5 90 19
102 19 117 6 9 -8 33 -22 52 -30 34 -14 38 -13 130 28 131 60 623 307 731 368
49 27 101 60 115 72 l25 22 -26 38 c-14 21 -26 45 -26 54 0 16 49 65 123 125
59 48 60 69 5 138 -66 84 -506 526 -556 559 -67 44 -87 40 -182 -35 -195 -155
-401 -237 -555 -220 -152 16 -498 115 -590 169 -100 59 -243 218 -366 406 -66
100 -75 110 -108 115 -108 17 -161 29 -221 51 -73 26 -80 28 -80 17z m1934
-845 c15 -13 29 -37 32 -55 14 -71 -90 -114 -135 -57 -35 44 -24 91 27 118 37
21 47 20 76 -6z m-945 -24 c38 -49 22 -106 -35 -120 -42 -11 -74 4 -90 41 -19
46 -18 52 12 80 37 34 86 34 113 -1z m581 -162 c27 -22 32 -85 8 -108 -9 -9
-32 -16 -53 -17 -29 -1 -43 5 -61 27 -13 15 -24 34 -24 42 0 60 82 95 130 56z
m-376 -133 c35 -28 36 -80 1 -114 -32 -33 -65 -31 -99 4 -56 58 -28 119 60
130 6 0 23 -8 38 -20z m932 -33 c54 -46 26 -136 -41 -136 -36 0 -85 46 -85 80
0 19 10 36 31 54 38 32 60 33 95 2z m-371 -201 c29 -28 34 -85 9 -109 -60 -61
-165 8 -123 82 14 26 52 52 77 52 7 0 24 -11 37 -25z m-350 -115 c29 -11 49
-53 40 -87 -6 -24 -51 -53 -83 -53 -34 0 -64 43 -60 86 3 39 8 43 75 63 1 1
13 -3 28 -9z"/>
<path d="M19133 3461 c-26 -21 -57 -48 -68 -60 -19 -22 -19 -23 0 -37 29 -21
39 -18 84 31 29 32 41 53 41 75 0 16 -2 30 -4 30 -2 0 -26 -17 -53 -39z"/>
<path d="M2494 3425 c-3 -7 5 -29 19 -47 13 -18 56 -95 96 -171 72 -140 135
-241 165 -266 36 -30 226 -36 226 -8 0 6 -51 62 -113 126 -62 64 -153 163
-201 219 -81 94 -155 162 -178 162 -5 0 -11 -7 -14 -15z"/>
<path d="M95 2063 c-60 -79 -59 -113 6 -145 82 -41 338 -48 523 -14 126 24
119 37 -27 47 -91 6 -111 11 -189 47 -48 23 -109 47 -135 53 -27 6 -67 22 -90
35 -23 13 -44 24 -47 24 -3 0 -21 -21 -41 -47z"/>
</g>
</svg>
